<?xml version="1.0" encoding="UTF-8" standalone="no"?>
<!DOCTYPE svg PUBLIC "-//W3C//DTD SVG 1.1//EN"
 "http://www.w3.org/Graphics/SVG/1.1/DTD/svg11.dtd">
<!-- Generated by graphviz version 12.2.1 (20241206.2353)
 -->
<!-- Title: G Pages: 1 -->
<svg width="1759pt" height="319pt"
 viewBox="0.00 0.00 1758.95 318.95" xmlns="http://www.w3.org/2000/svg" xmlns:xlink="http://www.w3.org/1999/xlink">
<g id="graph0" class="graph" transform="scale(1 1) rotate(0) translate(21.6 297.35)">
<title>G</title>
<polygon fill="#111111" stroke="none" points="-21.6,21.6 -21.6,-297.35 1737.35,-297.35 1737.35,21.6 -21.6,21.6"/>
<!-- APP/app.module.ts -->
<g id="node1" class="node">
<title>APP/app.module.ts</title>
<path fill="none" stroke="#c6c5fe" d="M220.58,-170.75C220.58,-170.75 104.17,-170.75 104.17,-170.75 100.21,-170.75 96.25,-166.79 96.25,-162.83 96.25,-162.83 96.25,-154.92 96.25,-154.92 96.25,-150.96 100.21,-147 104.17,-147 104.17,-147 220.58,-147 220.58,-147 224.54,-147 228.5,-150.96 228.5,-154.92 228.5,-154.92 228.5,-162.83 228.5,-162.83 228.5,-166.79 224.54,-170.75 220.58,-170.75"/>
<text text-anchor="middle" x="162.38" y="-153.45" font-family="Arial" font-size="14.00" fill="#c6c5fe">APP/app.module.ts</text>
</g>
<!-- DB/db.module.ts -->
<g id="node2" class="node">
<title>DB/db.module.ts</title>
<path fill="none" stroke="#cfffac" d="M414.71,-275.75C414.71,-275.75 314.04,-275.75 314.04,-275.75 310.08,-275.75 306.12,-271.79 306.12,-267.83 306.12,-267.83 306.12,-259.92 306.12,-259.92 306.12,-255.96 310.08,-252 314.04,-252 314.04,-252 414.71,-252 414.71,-252 418.67,-252 422.62,-255.96 422.62,-259.92 422.62,-259.92 422.62,-267.83 422.62,-267.83 422.62,-271.79 418.67,-275.75 414.71,-275.75"/>
<text text-anchor="middle" x="364.38" y="-258.45" font-family="Arial" font-size="14.00" fill="#cfffac">DB/db.module.ts</text>
</g>
<!-- APP/app.module.ts&#45;&gt;DB/db.module.ts -->
<g id="edge1" class="edge">
<title>APP/app.module.ts&#45;&gt;DB/db.module.ts</title>
<path fill="none" stroke="#757575" d="M174.19,-171.03C191.39,-189.56 226.91,-224.66 264.5,-242.88 273.99,-247.48 284.48,-251.07 294.97,-253.89"/>
<polygon fill="#757575" stroke="#757575" points="293.85,-257.21 304.39,-256.18 295.51,-250.41 293.85,-257.21"/>
</g>
<!-- chat/chat.module.ts -->
<g id="node3" class="node">
<title>chat/chat.module.ts</title>
<path fill="none" stroke="#c6c5fe" d="M423.33,-233.75C423.33,-233.75 305.42,-233.75 305.42,-233.75 301.46,-233.75 297.5,-229.79 297.5,-225.83 297.5,-225.83 297.5,-217.92 297.5,-217.92 297.5,-213.96 301.46,-210 305.42,-210 305.42,-210 423.33,-210 423.33,-210 427.29,-210 431.25,-213.96 431.25,-217.92 431.25,-217.92 431.25,-225.83 431.25,-225.83 431.25,-229.79 427.29,-233.75 423.33,-233.75"/>
<text text-anchor="middle" x="364.38" y="-216.45" font-family="Arial" font-size="14.00" fill="#c6c5fe">chat/chat.module.ts</text>
</g>
<!-- APP/app.module.ts&#45;&gt;chat/chat.module.ts -->
<g id="edge2" class="edge">
<title>APP/app.module.ts&#45;&gt;chat/chat.module.ts</title>
<path fill="none" stroke="#757575" d="M189.08,-171.1C209.23,-180.3 238.18,-192.69 264.5,-200.88 271.45,-203.04 278.75,-205.05 286.1,-206.91"/>
<polygon fill="#757575" stroke="#757575" points="285.24,-210.3 295.78,-209.25 286.88,-203.49 285.24,-210.3"/>
</g>
<!-- chatroom/chatroom.module.ts -->
<g id="node4" class="node">
<title>chatroom/chatroom.module.ts</title>
<path fill="none" stroke="#c6c5fe" d="M454.83,-191.75C454.83,-191.75 273.92,-191.75 273.92,-191.75 269.96,-191.75 266,-187.79 266,-183.83 266,-183.83 266,-175.92 266,-175.92 266,-171.96 269.96,-168 273.92,-168 273.92,-168 454.83,-168 454.83,-168 458.79,-168 462.75,-171.96 462.75,-175.92 462.75,-175.92 462.75,-183.83 462.75,-183.83 462.75,-187.79 458.79,-191.75 454.83,-191.75"/>
<text text-anchor="middle" x="364.38" y="-174.45" font-family="Arial" font-size="14.00" fill="#c6c5fe">chatroom/chatroom.module.ts</text>
</g>
<!-- APP/app.module.ts&#45;&gt;chatroom/chatroom.module.ts -->
<g id="edge3" class="edge">
<title>APP/app.module.ts&#45;&gt;chatroom/chatroom.module.ts</title>
<path fill="none" stroke="#757575" d="M228.86,-165.75C237.1,-166.62 245.69,-167.52 254.38,-168.43"/>
<polygon fill="#757575" stroke="#757575" points="254.01,-171.91 264.32,-169.47 254.74,-164.95 254.01,-171.91"/>
</g>
<!-- favorite/favorite.module.ts -->
<g id="node5" class="node">
<title>favorite/favorite.module.ts</title>
<path fill="none" stroke="#cfffac" d="M442.08,-149.75C442.08,-149.75 286.67,-149.75 286.67,-149.75 282.71,-149.75 278.75,-145.79 278.75,-141.83 278.75,-141.83 278.75,-133.92 278.75,-133.92 278.75,-129.96 282.71,-126 286.67,-126 286.67,-126 442.08,-126 442.08,-126 446.04,-126 450,-129.96 450,-133.92 450,-133.92 450,-141.83 450,-141.83 450,-145.79 446.04,-149.75 442.08,-149.75"/>
<text text-anchor="middle" x="364.38" y="-132.45" font-family="Arial" font-size="14.00" fill="#cfffac">favorite/favorite.module.ts</text>
</g>
<!-- APP/app.module.ts&#45;&gt;favorite/favorite.module.ts -->
<g id="edge4" class="edge">
<title>APP/app.module.ts&#45;&gt;favorite/favorite.module.ts</title>
<path fill="none" stroke="#757575" d="M228.86,-152C241.11,-150.71 254.14,-149.34 267.1,-147.98"/>
<polygon fill="#757575" stroke="#757575" points="267.35,-151.48 276.93,-146.95 266.62,-144.52 267.35,-151.48"/>
</g>
<!-- friendship/friendship.module.ts -->
<g id="node6" class="node">
<title>friendship/friendship.module.ts</title>
<path fill="none" stroke="#cfffac" d="M456.33,-107.75C456.33,-107.75 272.42,-107.75 272.42,-107.75 268.46,-107.75 264.5,-103.79 264.5,-99.83 264.5,-99.83 264.5,-91.92 264.5,-91.92 264.5,-87.96 268.46,-84 272.42,-84 272.42,-84 456.33,-84 456.33,-84 460.29,-84 464.25,-87.96 464.25,-91.92 464.25,-91.92 464.25,-99.83 464.25,-99.83 464.25,-103.79 460.29,-107.75 456.33,-107.75"/>
<text text-anchor="middle" x="364.38" y="-90.45" font-family="Arial" font-size="14.00" fill="#cfffac">friendship/friendship.module.ts</text>
</g>
<!-- APP/app.module.ts&#45;&gt;friendship/friendship.module.ts -->
<g id="edge5" class="edge">
<title>APP/app.module.ts&#45;&gt;friendship/friendship.module.ts</title>
<path fill="none" stroke="#757575" d="M189.08,-146.65C209.23,-137.45 238.18,-125.06 264.5,-116.88 271.4,-114.73 278.64,-112.73 285.93,-110.89"/>
<polygon fill="#757575" stroke="#757575" points="286.62,-114.32 295.52,-108.57 284.98,-107.52 286.62,-114.32"/>
</g>
<!-- user/user.module.ts -->
<g id="node7" class="node">
<title>user/user.module.ts</title>
<path fill="none" stroke="#c6c5fe" d="M423.71,-65.75C423.71,-65.75 305.04,-65.75 305.04,-65.75 301.08,-65.75 297.12,-61.79 297.12,-57.83 297.12,-57.83 297.12,-49.92 297.12,-49.92 297.12,-45.96 301.08,-42 305.04,-42 305.04,-42 423.71,-42 423.71,-42 427.67,-42 431.62,-45.96 431.62,-49.92 431.62,-49.92 431.62,-57.83 431.62,-57.83 431.62,-61.79 427.67,-65.75 423.71,-65.75"/>
<text text-anchor="middle" x="364.38" y="-48.45" font-family="Arial" font-size="14.00" fill="#c6c5fe">user/user.module.ts</text>
</g>
<!-- APP/app.module.ts&#45;&gt;user/user.module.ts -->
<g id="edge6" class="edge">
<title>APP/app.module.ts&#45;&gt;user/user.module.ts</title>
<path fill="none" stroke="#757575" d="M174.19,-146.72C191.39,-128.19 226.91,-93.09 264.5,-74.88 271.24,-71.61 278.48,-68.85 285.86,-66.52"/>
<polygon fill="#757575" stroke="#757575" points="286.64,-69.94 295.29,-63.81 284.71,-63.21 286.64,-69.94"/>
</g>
<!-- aichat/aichat.module.ts -->
<g id="node8" class="node">
<title>aichat/aichat.module.ts</title>
<path fill="none" stroke="#c6c5fe" d="M680.46,-233.75C680.46,-233.75 541.54,-233.75 541.54,-233.75 537.58,-233.75 533.62,-229.79 533.62,-225.83 533.62,-225.83 533.62,-217.92 533.62,-217.92 533.62,-213.96 537.58,-210 541.54,-210 541.54,-210 680.46,-210 680.46,-210 684.42,-210 688.38,-213.96 688.38,-217.92 688.38,-217.92 688.38,-225.83 688.38,-225.83 688.38,-229.79 684.42,-233.75 680.46,-233.75"/>
<text text-anchor="middle" x="611" y="-216.45" font-family="Arial" font-size="14.00" fill="#c6c5fe">aichat/aichat.module.ts</text>
</g>
<!-- chat/chat.module.ts&#45;&gt;aichat/aichat.module.ts -->
<g id="edge13" class="edge">
<title>chat/chat.module.ts&#45;&gt;aichat/aichat.module.ts</title>
<path fill="none" stroke="#757575" d="M431.57,-221.88C459.43,-221.88 492.24,-221.88 522.08,-221.88"/>
<polygon fill="#757575" stroke="#757575" points="521.84,-225.38 531.84,-221.88 521.84,-218.38 521.84,-225.38"/>
</g>
<!-- chat&#45;history/chat&#45;history.module.ts -->
<g id="node14" class="node">
<title>chat&#45;history/chat&#45;history.module.ts</title>
<path fill="none" stroke="#cfffac" d="M713.83,-191.75C713.83,-191.75 508.17,-191.75 508.17,-191.75 504.21,-191.75 500.25,-187.79 500.25,-183.83 500.25,-183.83 500.25,-175.92 500.25,-175.92 500.25,-171.96 504.21,-168 508.17,-168 508.17,-168 713.83,-168 713.83,-168 717.79,-168 721.75,-171.96 721.75,-175.92 721.75,-175.92 721.75,-183.83 721.75,-183.83 721.75,-187.79 717.79,-191.75 713.83,-191.75"/>
<text text-anchor="middle" x="611" y="-174.45" font-family="Arial" font-size="14.00" fill="#cfffac">chat&#45;history/chat&#45;history.module.ts</text>
</g>
<!-- chatroom/chatroom.module.ts&#45;&gt;chat&#45;history/chat&#45;history.module.ts -->
<g id="edge14" class="edge">
<title>chatroom/chatroom.module.ts&#45;&gt;chat&#45;history/chat&#45;history.module.ts</title>
<path fill="none" stroke="#757575" d="M463.11,-179.88C471.53,-179.88 480.12,-179.88 488.69,-179.88"/>
<polygon fill="#757575" stroke="#757575" points="488.43,-183.38 498.43,-179.88 488.43,-176.38 488.43,-183.38"/>
</g>
<!-- email/email.module.ts -->
<g id="node15" class="node">
<title>email/email.module.ts</title>
<path fill="none" stroke="#cfffac" d="M677.46,-107.75C677.46,-107.75 544.54,-107.75 544.54,-107.75 540.58,-107.75 536.62,-103.79 536.62,-99.83 536.62,-99.83 536.62,-91.92 536.62,-91.92 536.62,-87.96 540.58,-84 544.54,-84 544.54,-84 677.46,-84 677.46,-84 681.42,-84 685.38,-87.96 685.38,-91.92 685.38,-91.92 685.38,-99.83 685.38,-99.83 685.38,-103.79 681.42,-107.75 677.46,-107.75"/>
<text text-anchor="middle" x="611" y="-90.45" font-family="Arial" font-size="14.00" fill="#cfffac">email/email.module.ts</text>
</g>
<!-- user/user.module.ts&#45;&gt;email/email.module.ts -->
<g id="edge16" class="edge">
<title>user/user.module.ts&#45;&gt;email/email.module.ts</title>
<path fill="none" stroke="#757575" d="M431.9,-65.3C461.26,-70.34 496.07,-76.31 527.1,-81.64"/>
<polygon fill="#757575" stroke="#757575" points="526.41,-85.07 536.85,-83.32 527.59,-78.17 526.41,-85.07"/>
</g>
<!-- oss/oss.module.ts -->
<g id="node17" class="node">
<title>oss/oss.module.ts</title>
<path fill="none" stroke="#cfffac" d="M665.46,-65.75C665.46,-65.75 556.54,-65.75 556.54,-65.75 552.58,-65.75 548.62,-61.79 548.62,-57.83 548.62,-57.83 548.62,-49.92 548.62,-49.92 548.62,-45.96 552.58,-42 556.54,-42 556.54,-42 665.46,-42 665.46,-42 669.42,-42 673.38,-45.96 673.38,-49.92 673.38,-49.92 673.38,-57.83 673.38,-57.83 673.38,-61.79 669.42,-65.75 665.46,-65.75"/>
<text text-anchor="middle" x="611" y="-48.45" font-family="Arial" font-size="14.00" fill="#cfffac">oss/oss.module.ts</text>
</g>
<!-- user/user.module.ts&#45;&gt;oss/oss.module.ts -->
<g id="edge17" class="edge">
<title>user/user.module.ts&#45;&gt;oss/oss.module.ts</title>
<path fill="none" stroke="#757575" d="M431.9,-53.88C464.56,-53.88 503.99,-53.88 537.43,-53.88"/>
<polygon fill="#757575" stroke="#757575" points="537.01,-57.38 547.01,-53.88 537.01,-50.38 537.01,-57.38"/>
</g>
<!-- redis/redis.module.ts -->
<g id="node18" class="node">
<title>redis/redis.module.ts</title>
<path fill="none" stroke="#cfffac" d="M673.71,-23.75C673.71,-23.75 548.29,-23.75 548.29,-23.75 544.33,-23.75 540.38,-19.79 540.38,-15.83 540.38,-15.83 540.38,-7.92 540.38,-7.92 540.38,-3.96 544.33,0 548.29,0 548.29,0 673.71,0 673.71,0 677.67,0 681.62,-3.96 681.62,-7.92 681.62,-7.92 681.62,-15.83 681.62,-15.83 681.62,-19.79 677.67,-23.75 673.71,-23.75"/>
<text text-anchor="middle" x="611" y="-6.45" font-family="Arial" font-size="14.00" fill="#cfffac">redis/redis.module.ts</text>
</g>
<!-- user/user.module.ts&#45;&gt;redis/redis.module.ts -->
<g id="edge18" class="edge">
<title>user/user.module.ts&#45;&gt;redis/redis.module.ts</title>
<path fill="none" stroke="#757575" d="M431.9,-42.45C461.89,-37.3 497.58,-31.18 529.11,-25.76"/>
<polygon fill="#757575" stroke="#757575" points="529.32,-29.28 538.58,-24.14 528.13,-22.38 529.32,-29.28"/>
</g>
<!-- chain/chain.module.ts -->
<g id="node9" class="node">
<title>chain/chain.module.ts</title>
<path fill="none" stroke="#c6c5fe" d="M897.08,-233.75C897.08,-233.75 765.67,-233.75 765.67,-233.75 761.71,-233.75 757.75,-229.79 757.75,-225.83 757.75,-225.83 757.75,-217.92 757.75,-217.92 757.75,-213.96 761.71,-210 765.67,-210 765.67,-210 897.08,-210 897.08,-210 901.04,-210 905,-213.96 905,-217.92 905,-217.92 905,-225.83 905,-225.83 905,-229.79 901.04,-233.75 897.08,-233.75"/>
<text text-anchor="middle" x="831.38" y="-216.45" font-family="Arial" font-size="14.00" fill="#c6c5fe">chain/chain.module.ts</text>
</g>
<!-- aichat/aichat.module.ts&#45;&gt;chain/chain.module.ts -->
<g id="edge7" class="edge">
<title>aichat/aichat.module.ts&#45;&gt;chain/chain.module.ts</title>
<path fill="none" stroke="#757575" d="M688.68,-221.88C707.29,-221.88 727.29,-221.88 746.22,-221.88"/>
<polygon fill="#757575" stroke="#757575" points="746.03,-225.38 756.03,-221.88 746.03,-218.38 746.03,-225.38"/>
</g>
<!-- chain/agent/agent.module.ts -->
<g id="node10" class="node">
<title>chain/agent/agent.module.ts</title>
<path fill="none" stroke="#c6c5fe" d="M1128.33,-273.75C1128.33,-273.75 957.92,-273.75 957.92,-273.75 953.96,-273.75 950,-269.79 950,-265.83 950,-265.83 950,-257.92 950,-257.92 950,-253.96 953.96,-250 957.92,-250 957.92,-250 1128.33,-250 1128.33,-250 1132.29,-250 1136.25,-253.96 1136.25,-257.92 1136.25,-257.92 1136.25,-265.83 1136.25,-265.83 1136.25,-269.79 1132.29,-273.75 1128.33,-273.75"/>
<text text-anchor="middle" x="1043.12" y="-256.45" font-family="Arial" font-size="14.00" fill="#c6c5fe">chain/agent/agent.module.ts</text>
</g>
<!-- chain/chain.module.ts&#45;&gt;chain/agent/agent.module.ts -->
<g id="edge9" class="edge">
<title>chain/chain.module.ts&#45;&gt;chain/agent/agent.module.ts</title>
<path fill="none" stroke="#757575" d="M897.02,-234.2C918.85,-238.37 943.42,-243.05 966.05,-247.37"/>
<polygon fill="#757575" stroke="#757575" points="965.37,-250.8 975.85,-249.24 966.68,-243.92 965.37,-250.8"/>
</g>
<!-- chain/model/model.module.ts -->
<g id="node11" class="node">
<title>chain/model/model.module.ts</title>
<path fill="none" stroke="#c6c5fe" d="M1367.08,-253.75C1367.08,-253.75 1189.17,-253.75 1189.17,-253.75 1185.21,-253.75 1181.25,-249.79 1181.25,-245.83 1181.25,-245.83 1181.25,-237.92 1181.25,-237.92 1181.25,-233.96 1185.21,-230 1189.17,-230 1189.17,-230 1367.08,-230 1367.08,-230 1371.04,-230 1375,-233.96 1375,-237.92 1375,-237.92 1375,-245.83 1375,-245.83 1375,-249.79 1371.04,-253.75 1367.08,-253.75"/>
<text text-anchor="middle" x="1278.12" y="-236.45" font-family="Arial" font-size="14.00" fill="#c6c5fe">chain/model/model.module.ts</text>
</g>
<!-- chain/chain.module.ts&#45;&gt;chain/model/model.module.ts -->
<g id="edge10" class="edge">
<title>chain/chain.module.ts&#45;&gt;chain/model/model.module.ts</title>
<path fill="none" stroke="#757575" d="M905.32,-225.16C977.1,-228.38 1087.56,-233.35 1169.44,-237.03"/>
<polygon fill="#757575" stroke="#757575" points="1169.14,-240.52 1179.29,-237.48 1169.46,-233.53 1169.14,-240.52"/>
</g>
<!-- chain/prompt/prompt.module.ts -->
<g id="node12" class="node">
<title>chain/prompt/prompt.module.ts</title>
<path fill="none" stroke="#cfffac" d="M1137.33,-193.75C1137.33,-193.75 948.92,-193.75 948.92,-193.75 944.96,-193.75 941,-189.79 941,-185.83 941,-185.83 941,-177.92 941,-177.92 941,-173.96 944.96,-170 948.92,-170 948.92,-170 1137.33,-170 1137.33,-170 1141.29,-170 1145.25,-173.96 1145.25,-177.92 1145.25,-177.92 1145.25,-185.83 1145.25,-185.83 1145.25,-189.79 1141.29,-193.75 1137.33,-193.75"/>
<text text-anchor="middle" x="1043.12" y="-176.45" font-family="Arial" font-size="14.00" fill="#cfffac">chain/prompt/prompt.module.ts</text>
</g>
<!-- chain/chain.module.ts&#45;&gt;chain/prompt/prompt.module.ts -->
<g id="edge11" class="edge">
<title>chain/chain.module.ts&#45;&gt;chain/prompt/prompt.module.ts</title>
<path fill="none" stroke="#757575" d="M897.02,-209.55C918.85,-205.38 943.42,-200.7 966.05,-196.38"/>
<polygon fill="#757575" stroke="#757575" points="966.68,-199.83 975.85,-194.51 965.37,-192.95 966.68,-199.83"/>
</g>
<!-- chain/agent/agent.module.ts&#45;&gt;chain/model/model.module.ts -->
<g id="edge8" class="edge">
<title>chain/agent/agent.module.ts&#45;&gt;chain/model/model.module.ts</title>
<path fill="none" stroke="#757575" d="M1136.55,-253.94C1147.39,-253.01 1158.53,-252.06 1169.56,-251.11"/>
<polygon fill="#757575" stroke="#757575" points="1169.82,-254.6 1179.48,-250.26 1169.22,-247.62 1169.82,-254.6"/>
</g>
<!-- chain/model/chat_history/chat_history.module.ts -->
<g id="node13" class="node">
<title>chain/model/chat_history/chat_history.module.ts</title>
<path fill="none" stroke="#cfffac" d="M1707.83,-253.75C1707.83,-253.75 1418.92,-253.75 1418.92,-253.75 1414.96,-253.75 1411,-249.79 1411,-245.83 1411,-245.83 1411,-237.92 1411,-237.92 1411,-233.96 1414.96,-230 1418.92,-230 1418.92,-230 1707.83,-230 1707.83,-230 1711.79,-230 1715.75,-233.96 1715.75,-237.92 1715.75,-237.92 1715.75,-245.83 1715.75,-245.83 1715.75,-249.79 1711.79,-253.75 1707.83,-253.75"/>
<text text-anchor="middle" x="1563.38" y="-236.45" font-family="Arial" font-size="14.00" fill="#cfffac">chain/model/chat_history/chat_history.module.ts</text>
</g>
<!-- chain/model/model.module.ts&#45;&gt;chain/model/chat_history/chat_history.module.ts -->
<g id="edge12" class="edge">
<title>chain/model/model.module.ts&#45;&gt;chain/model/chat_history/chat_history.module.ts</title>
<path fill="none" stroke="#757575" d="M1375.42,-241.88C1383.16,-241.88 1391.1,-241.88 1399.13,-241.88"/>
<polygon fill="#757575" stroke="#757575" points="1399.03,-245.38 1409.03,-241.88 1399.03,-238.38 1399.03,-245.38"/>
</g>
<!-- main.ts -->
<g id="node16" class="node">
<title>main.ts</title>
<path fill="none" stroke="#c6c5fe" d="M52.33,-170.75C52.33,-170.75 7.92,-170.75 7.92,-170.75 3.96,-170.75 0,-166.79 0,-162.83 0,-162.83 0,-154.92 0,-154.92 0,-150.96 3.96,-147 7.92,-147 7.92,-147 52.33,-147 52.33,-147 56.29,-147 60.25,-150.96 60.25,-154.92 60.25,-154.92 60.25,-162.83 60.25,-162.83 60.25,-166.79 56.29,-170.75 52.33,-170.75"/>
<text text-anchor="middle" x="30.12" y="-153.45" font-family="Arial" font-size="14.00" fill="#c6c5fe">main.ts</text>
</g>
<!-- main.ts&#45;&gt;APP/app.module.ts -->
<g id="edge15" class="edge">
<title>main.ts&#45;&gt;APP/app.module.ts</title>
<path fill="none" stroke="#757575" d="M60.68,-158.88C67.9,-158.88 75.97,-158.88 84.31,-158.88"/>
<polygon fill="#757575" stroke="#757575" points="84.28,-162.38 94.28,-158.88 84.28,-155.38 84.28,-162.38"/>
</g>
</g>
</svg>
